<mxfile host="app.diagrams.net" agent="Mozilla/5.0 (Windows NT 10.0; Win64; x64) AppleWebKit/537.36 (KHTML, like Gecko) Chrome/130.0.0.0 Safari/537.36" version="25.0.1">
  <diagram name="Trang-1" id="GGv9CTztzl2PyR_eV8q0">
    <mxGraphModel dx="1006" dy="606" grid="1" gridSize="10" guides="1" tooltips="1" connect="1" arrows="1" fold="1" page="1" pageScale="1" pageWidth="827" pageHeight="1169" math="0" shadow="0">
      <root>
        <mxCell id="0" />
        <mxCell id="1" parent="0" />
        <mxCell id="rIBrRR4PFaul5WlaCWfP-3" value="" style="edgeStyle=orthogonalEdgeStyle;rounded=0;orthogonalLoop=1;jettySize=auto;html=1;" edge="1" parent="1" source="rIBrRR4PFaul5WlaCWfP-1" target="rIBrRR4PFaul5WlaCWfP-2">
          <mxGeometry relative="1" as="geometry" />
        </mxCell>
        <mxCell id="rIBrRR4PFaul5WlaCWfP-1" value="Start" style="ellipse;whiteSpace=wrap;html=1;" vertex="1" parent="1">
          <mxGeometry x="320" y="20" width="120" height="80" as="geometry" />
        </mxCell>
        <mxCell id="rIBrRR4PFaul5WlaCWfP-5" value="" style="edgeStyle=orthogonalEdgeStyle;rounded=0;orthogonalLoop=1;jettySize=auto;html=1;" edge="1" parent="1" source="rIBrRR4PFaul5WlaCWfP-2" target="rIBrRR4PFaul5WlaCWfP-4">
          <mxGeometry relative="1" as="geometry" />
        </mxCell>
        <mxCell id="rIBrRR4PFaul5WlaCWfP-2" value="a , b ,c" style="shape=parallelogram;perimeter=parallelogramPerimeter;whiteSpace=wrap;html=1;fixedSize=1;" vertex="1" parent="1">
          <mxGeometry x="320" y="190" width="120" height="60" as="geometry" />
        </mxCell>
        <mxCell id="rIBrRR4PFaul5WlaCWfP-7" value="" style="edgeStyle=orthogonalEdgeStyle;rounded=0;orthogonalLoop=1;jettySize=auto;html=1;" edge="1" parent="1" source="rIBrRR4PFaul5WlaCWfP-4" target="rIBrRR4PFaul5WlaCWfP-6">
          <mxGeometry relative="1" as="geometry" />
        </mxCell>
        <mxCell id="rIBrRR4PFaul5WlaCWfP-8" value="Yes" style="edgeLabel;html=1;align=center;verticalAlign=middle;resizable=0;points=[];" vertex="1" connectable="0" parent="rIBrRR4PFaul5WlaCWfP-7">
          <mxGeometry x="-0.205" relative="1" as="geometry">
            <mxPoint as="offset" />
          </mxGeometry>
        </mxCell>
        <mxCell id="rIBrRR4PFaul5WlaCWfP-15" value="" style="edgeStyle=orthogonalEdgeStyle;rounded=0;orthogonalLoop=1;jettySize=auto;html=1;" edge="1" parent="1" source="rIBrRR4PFaul5WlaCWfP-4" target="rIBrRR4PFaul5WlaCWfP-14">
          <mxGeometry relative="1" as="geometry" />
        </mxCell>
        <mxCell id="rIBrRR4PFaul5WlaCWfP-16" value="No" style="edgeLabel;html=1;align=center;verticalAlign=middle;resizable=0;points=[];" vertex="1" connectable="0" parent="rIBrRR4PFaul5WlaCWfP-15">
          <mxGeometry x="-0.49" y="3" relative="1" as="geometry">
            <mxPoint as="offset" />
          </mxGeometry>
        </mxCell>
        <mxCell id="rIBrRR4PFaul5WlaCWfP-4" value="a &amp;gt; b" style="rhombus;whiteSpace=wrap;html=1;" vertex="1" parent="1">
          <mxGeometry x="340" y="320" width="80" height="80" as="geometry" />
        </mxCell>
        <mxCell id="rIBrRR4PFaul5WlaCWfP-10" value="" style="edgeStyle=orthogonalEdgeStyle;rounded=0;orthogonalLoop=1;jettySize=auto;html=1;" edge="1" parent="1" source="rIBrRR4PFaul5WlaCWfP-6" target="rIBrRR4PFaul5WlaCWfP-9">
          <mxGeometry relative="1" as="geometry" />
        </mxCell>
        <mxCell id="rIBrRR4PFaul5WlaCWfP-11" value="Yes" style="edgeLabel;html=1;align=center;verticalAlign=middle;resizable=0;points=[];" vertex="1" connectable="0" parent="rIBrRR4PFaul5WlaCWfP-10">
          <mxGeometry x="-0.3156" y="-2" relative="1" as="geometry">
            <mxPoint as="offset" />
          </mxGeometry>
        </mxCell>
        <mxCell id="rIBrRR4PFaul5WlaCWfP-6" value="a &amp;gt; c" style="rhombus;whiteSpace=wrap;html=1;" vertex="1" parent="1">
          <mxGeometry x="340" y="480" width="80" height="80" as="geometry" />
        </mxCell>
        <mxCell id="rIBrRR4PFaul5WlaCWfP-13" value="" style="edgeStyle=orthogonalEdgeStyle;rounded=0;orthogonalLoop=1;jettySize=auto;html=1;" edge="1" parent="1" source="rIBrRR4PFaul5WlaCWfP-9" target="rIBrRR4PFaul5WlaCWfP-12">
          <mxGeometry relative="1" as="geometry" />
        </mxCell>
        <mxCell id="rIBrRR4PFaul5WlaCWfP-9" value="a là số lớn nhất" style="shape=parallelogram;perimeter=parallelogramPerimeter;whiteSpace=wrap;html=1;fixedSize=1;" vertex="1" parent="1">
          <mxGeometry x="320" y="650" width="120" height="60" as="geometry" />
        </mxCell>
        <mxCell id="rIBrRR4PFaul5WlaCWfP-12" value="End" style="ellipse;whiteSpace=wrap;html=1;" vertex="1" parent="1">
          <mxGeometry x="320" y="760" width="120" height="80" as="geometry" />
        </mxCell>
        <mxCell id="rIBrRR4PFaul5WlaCWfP-18" value="" style="edgeStyle=orthogonalEdgeStyle;rounded=0;orthogonalLoop=1;jettySize=auto;html=1;" edge="1" parent="1" source="rIBrRR4PFaul5WlaCWfP-14" target="rIBrRR4PFaul5WlaCWfP-17">
          <mxGeometry relative="1" as="geometry" />
        </mxCell>
        <mxCell id="rIBrRR4PFaul5WlaCWfP-19" value="Yes" style="edgeLabel;html=1;align=center;verticalAlign=middle;resizable=0;points=[];" vertex="1" connectable="0" parent="rIBrRR4PFaul5WlaCWfP-18">
          <mxGeometry x="-0.2044" y="1" relative="1" as="geometry">
            <mxPoint as="offset" />
          </mxGeometry>
        </mxCell>
        <mxCell id="rIBrRR4PFaul5WlaCWfP-22" value="" style="edgeStyle=orthogonalEdgeStyle;rounded=0;orthogonalLoop=1;jettySize=auto;html=1;" edge="1" parent="1" source="rIBrRR4PFaul5WlaCWfP-14" target="rIBrRR4PFaul5WlaCWfP-21">
          <mxGeometry relative="1" as="geometry" />
        </mxCell>
        <mxCell id="rIBrRR4PFaul5WlaCWfP-23" value="No" style="edgeLabel;html=1;align=center;verticalAlign=middle;resizable=0;points=[];" vertex="1" connectable="0" parent="rIBrRR4PFaul5WlaCWfP-22">
          <mxGeometry x="-0.1886" relative="1" as="geometry">
            <mxPoint as="offset" />
          </mxGeometry>
        </mxCell>
        <mxCell id="rIBrRR4PFaul5WlaCWfP-14" value="b &amp;gt; c" style="rhombus;whiteSpace=wrap;html=1;" vertex="1" parent="1">
          <mxGeometry x="500" y="320" width="80" height="80" as="geometry" />
        </mxCell>
        <mxCell id="rIBrRR4PFaul5WlaCWfP-20" style="edgeStyle=orthogonalEdgeStyle;rounded=0;orthogonalLoop=1;jettySize=auto;html=1;entryX=1;entryY=0.5;entryDx=0;entryDy=0;" edge="1" parent="1" source="rIBrRR4PFaul5WlaCWfP-17" target="rIBrRR4PFaul5WlaCWfP-12">
          <mxGeometry relative="1" as="geometry">
            <mxPoint x="540" y="800" as="targetPoint" />
            <Array as="points">
              <mxPoint x="540" y="800" />
            </Array>
          </mxGeometry>
        </mxCell>
        <mxCell id="rIBrRR4PFaul5WlaCWfP-17" value="b là số lớn nhát" style="shape=parallelogram;perimeter=parallelogramPerimeter;whiteSpace=wrap;html=1;fixedSize=1;" vertex="1" parent="1">
          <mxGeometry x="480" y="490" width="120" height="60" as="geometry" />
        </mxCell>
        <mxCell id="rIBrRR4PFaul5WlaCWfP-24" style="edgeStyle=orthogonalEdgeStyle;rounded=0;orthogonalLoop=1;jettySize=auto;html=1;" edge="1" parent="1" source="rIBrRR4PFaul5WlaCWfP-21">
          <mxGeometry relative="1" as="geometry">
            <mxPoint x="540" y="800" as="targetPoint" />
            <Array as="points">
              <mxPoint x="700" y="800" />
            </Array>
          </mxGeometry>
        </mxCell>
        <mxCell id="rIBrRR4PFaul5WlaCWfP-21" value="c là số lớn nhất" style="shape=parallelogram;perimeter=parallelogramPerimeter;whiteSpace=wrap;html=1;fixedSize=1;" vertex="1" parent="1">
          <mxGeometry x="640" y="330" width="120" height="60" as="geometry" />
        </mxCell>
      </root>
    </mxGraphModel>
  </diagram>
</mxfile>
